PathFileType	4	(X/Y/Z)	33_1_42_p0_0-328_filt_butterworth.trc
DataRate	CameraRate	NumFrames	NumMarkers	Units	OrigDataRate	OrigDataStartFrame	OrigNumFrames
59.0	59.0	4	27	m	59.0	0	328
Frame#	Time	RHip			RKnee			RAnkle			RBigToe			RSmallToe			RHeel			LHip			LKnee			LAnkle			LBigToe			LSmallToe			LHeel			Neck			Head			Nose			RShoulder			RElbow			RWrist			RThumb			RIndex			RPinky			LShoulder			LElbow			LWrist			LThumb			LIndex			LPinky			
		X1	Y1	Z1	X2	Y2	Z2	X3	Y3	Z3	X4	Y4	Z4	X5	Y5	Z5	X6	Y6	Z6	X7	Y7	Z7	X8	Y8	Z8	X9	Y9	Z9	X10	Y10	Z10	X11	Y11	Z11	X12	Y12	Z12	X13	Y13	Z13	X14	Y14	Z14	X15	Y15	Z15	X16	Y16	Z16	X17	Y17	Z17	X18	Y18	Z18	X19	Y19	Z19	X20	Y20	Z20	X21	Y21	Z21	X22	Y22	Z22	X23	Y23	Z23	X24	Y24	Z24	X25	Y25	Z25	X26	Y26	Z26	X27	Y27	Z27	
0	0.0	0.30935095822854425	0.3114862433623463	0.11370792038139638	0.2978640943998535	0.5721720288508154	0.5319043053828981	0.2641586190632673	0.739990365007068	0.910422861929608	0.26580085726141733	0.6664037892996513	0.999916751977476	0.3264987547971863	0.6469703180162663	0.9897690570397595	0.2193762751930993	0.8375877648062896	0.9609244689954031	0.10579637345567468	0.31385814202447687	0.13702100678565013	0.08932015191491541	0.5824636576048494	0.5374100027535575	0.08234430891270335	0.8036154147391209	0.9357828575912641	0.09726471008452121	0.6029582309630496	0.9929252089295072	0.044848623950364666	0.6623328307072274	0.993282977808353	0.0938551004082358	0.8455559799694857	0.956404834965629	0.23260440447742997	0.01658448077492916	-0.3757014951364944	0.23753589411790474	-0.12475655423041716	-0.5768123471957816	0.250861811794815	-0.16671098910856527	-0.4004156389093258	0.3969943155449424	0.06435478684843944	-0.2806599658005416	0.4139734403476846	0.16020979975456812	-0.017191475305383064	0.27322255404187273	0.1443632203710648	0.1954113223696612	0.17016077830610807	0.1708050394290442	0.26566222342331003	0.16411395943879264	0.20743277974126476	0.28412975780014593	0.18201542881770683	0.22412293774041053	0.2847678223192485	0.06022551371484484	0.04255523556049502	-0.29058206043286733	0.029138065894867532	0.15233620218297736	-0.04261879216771914	0.11963309425670292	0.15121746356989205	0.18200957081791397	0.20521726079042305	0.13886894381218837	0.25076616106268174	0.2031861226836403	0.1772114814384429	0.274983572110965	0.17870823315034157	0.18011284866043203	0.2839600654084153
1	0.0169491525423728	0.3082452482038974	0.30706489467040315	0.11502452296131585	0.2976896960778578	0.5720131729163248	0.5321879886958476	0.264621751949466	0.7420645333986802	0.9130676045778658	0.2651051525608459	0.6618928313005308	1.0011512703322123	0.3255331252642	0.6471888926610752	0.992992487283345	0.22371785591173338	0.8311258175846131	0.9604852288289916	0.10298849257531692	0.3190428924626934	0.13632180137766936	0.08884187392641041	0.5786521550662725	0.5377224853565234	0.08243086282446795	0.8035500499679564	0.9357870688920367	0.09461683917631554	0.5999188203077666	0.9919215666205312	0.04212091804434841	0.6611549408886659	0.993396807355847	0.09383490287797511	0.8465866910576831	0.9587485728797565	0.23256901689812415	0.016604951410241046	-0.37571412084968053	0.23749833231350026	-0.1248403180201271	-0.5767944435086446	0.2508252593273032	-0.1667928021471813	-0.40036933270786584	0.3952959004356147	0.05793073038067558	-0.2781560100880179	0.41364440184263185	0.1590978176447907	-0.018849719329189787	0.2732959961453884	0.145755833534446	0.19723534941930906	0.16870387321372524	0.17056983448762278	0.26558987500342246	0.15785383325377111	0.22020510073598157	0.2828240373135126	0.18220074642917747	0.2256376268419662	0.2846722359387998	0.06024015316744864	0.042783397443122054	-0.29027448795651195	0.029089688016790963	0.15224297614407356	-0.04261895361935983	0.11994100115509858	0.15167354818106382	0.18120773525135542	0.20197675118108818	0.14632592216048704	0.24969599201774534	0.20250549573217638	0.1762849887211376	0.2751898500756066	0.17865468197746787	0.17955554301541496	0.28218150651117024
2	0.0338983050847457	0.3071389677682852	0.30304816672752805	0.1167807761325102	0.29731907476898356	0.5717719911741752	0.532477821233595	0.26490870025664986	0.7432921224959806	0.914683257395695	0.2644047465405624	0.6576153120270294	1.0021572423012177	0.3249070260919932	0.6470725913732142	0.9949658705653823	0.22668381825541797	0.8296777716704477	0.9608139356999963	0.09979915998991659	0.3236791516547338	0.13573187850473434	0.08870338335887026	0.5771761809649967	0.5378540169043107	0.08249135444847994	0.803510251555916	0.9357898184854336	0.0927789054426642	0.5982320633222726	0.9917243899894819	0.04048247119977747	0.6604722954553692	0.9934779719329738	0.09400011042858411	0.8467759249565737	0.9593022301323062	0.2325492192707544	0.016621665033610816	-0.37571691962899406	0.23746416810955695	-0.12488659896041679	-0.5767778849574705	0.25080422890315807	-0.1668310175647099	-0.4003414384689733	0.39429217310575	0.05409882534590566	-0.27728826996046957	0.41348332653964537	0.15884690893444037	-0.018878846779338754	0.2733004146672018	0.14655773933163851	0.19831890918002693	0.16765793551558575	0.17032886836301755	0.2654238917919456	0.15413906881960449	0.2310662045012573	0.2818341580186009	0.18277577308712836	0.2287251748644959	0.28426634272946755	0.06029452464860643	0.04325749070193427	-0.28958825983887526	0.029055713328194527	0.15217178847515694	-0.04261599090076184	0.12016505195077902	0.15159036078265237	0.18000499559446545	0.2006129060089652	0.1510666659102372	0.2489433563384517	0.20280332443580948	0.17708669969487878	0.2750334454680329	0.17860099641401722	0.17930829868811637	0.2813790762990602
3	0.0508474576271186	0.30630874614167647	0.30052425660858606	0.11860267066507885	0.2968218355076004	0.5714609354023477	0.5326954526788622	0.26499773074122096	0.7435715031598734	0.9151686749128278	0.2638361692509946	0.6546734320879798	1.0029855961781864	0.324665749977188	0.6467302645399181	0.9955390589174327	0.22800348872627535	0.8323246547064441	0.9620298407822837	0.09697305507449626	0.3265363720125338	0.13544792807007552	0.08900488175669621	0.5787579574340284	0.5377464888136329	0.08253671671159504	0.8034685819920071	0.935755769712846	0.09192508433920414	0.5977713847861332	0.9920617122979056	0.04001263795990503	0.6602897423379375	0.9935086821544369	0.09423511570541444	0.8462660627821567	0.9581353159943131	0.232545697359904	0.016631890877803677	-0.3757124401870131	0.23743625064581184	-0.12488564974297599	-0.576771997343151	0.25079592476116475	-0.16683282705607203	-0.400335283673355	0.39403458260221674	0.05295077308149322	-0.27826090425975597	0.41355375253492355	0.1595793465046212	-0.01704756716726738	0.2732667649993954	0.1467438362280009	0.1986230361437477	0.16719859696380251	0.17009800219141474	0.26539950032221227	0.15354113232908595	0.23792335880130983	0.2810758119611275	0.1836455431989504	0.23287405182293242	0.2836086030978806	0.060406214438800655	0.04390795663893353	-0.2886643886542154	0.029038790283268518	0.15213474762994314	-0.042606774288887816	0.12024701841102092	0.15107154471024334	0.17871515676911756	0.20116863423940934	0.1528390353240263	0.24858931714385576	0.2039136720021254	0.17669115056436613	0.2750008264275088	0.17856135957108699	0.17942178194182246	0.28137168423747677
